<svg xmlns="http://www.w3.org/2000/svg" width="50" height="50" viewBox="0 0 50 50">
  <path id="Icon_material-gradient" data-name="Icon material-gradient" d="M26.722,21.167h5.556v5.556H26.722Zm-5.556,5.556h5.556v5.556H21.167Zm11.111,0h5.556v5.556H32.278Zm5.556-5.556h5.556v5.556H37.833Zm-22.222,0h5.556v5.556H15.611ZM48.944,4.5H10.056A5.572,5.572,0,0,0,4.5,10.056V48.944A5.572,5.572,0,0,0,10.056,54.5H48.944A5.572,5.572,0,0,0,54.5,48.944V10.056A5.572,5.572,0,0,0,48.944,4.5ZM21.167,46.167H15.611V40.611h5.556Zm11.111,0H26.722V40.611h5.556Zm11.111,0H37.833V40.611h5.556Zm5.556-19.444H43.389v5.556h5.556v5.556H43.389V32.278H37.833v5.556H32.278V32.278H26.722v5.556H21.167V32.278H15.611v5.556H10.056V32.278h5.556V26.722H10.056V10.056H48.944Z" transform="translate(-4.5 -4.5)" fill="#2ea2b9"/>
</svg>
