<svg xmlns="http://www.w3.org/2000/svg" width="50" height="38.889" viewBox="0 0 50 38.889">
  <path id="Icon_awesome-images" data-name="Icon awesome-images" d="M41.667,35.583v1.389A4.167,4.167,0,0,1,37.5,41.139H4.167A4.167,4.167,0,0,1,0,36.972V14.75a4.167,4.167,0,0,1,4.167-4.167H5.556V28.639A6.952,6.952,0,0,0,12.5,35.583ZM50,28.639V6.417A4.167,4.167,0,0,0,45.833,2.25H12.5A4.167,4.167,0,0,0,8.333,6.417V28.639A4.167,4.167,0,0,0,12.5,32.806H45.833A4.167,4.167,0,0,0,50,28.639ZM22.222,10.583a4.167,4.167,0,1,1-4.167-4.167A4.167,4.167,0,0,1,22.222,10.583Zm-8.333,12.5,4.819-4.819a1.042,1.042,0,0,1,1.473,0l3.43,3.43L35.375,9.931a1.042,1.042,0,0,1,1.473,0l7.6,7.6V27.25H13.889Z" transform="translate(0 -2.25)" fill="#2ea2b9"/>
</svg>
