<?xml version="1.0" encoding="UTF-8"?>
<svg id="Layer_1" data-name="Layer 1" xmlns="http://www.w3.org/2000/svg" viewBox="0 0 300 300">
  <circle cx="150" cy="150" r="150" fill="#f8dc4b"/>
  <circle cx="150" cy="150" r="137.56" fill="none" stroke="#f2c33f" stroke-dasharray="0 0 4.32 12.97" stroke-linecap="round" stroke-linejoin="round" stroke-width="4.32"/>
  <g opacity=".28">
    <path d="m253.6,41.53L33.92,245c3.18,3.88,6.54,7.59,10.08,11.13L263.93,52.43c-3.26-3.8-6.7-7.45-10.33-10.91Z" fill="#fff"/>
    <path d="m291.22,99.34c-4.22-11.75-9.85-22.82-16.71-33.01L57.06,267.74c9.65,7.63,20.26,14.1,31.62,19.19l202.54-187.59Z" fill="#fff"/>
    <path d="m8.14,198.85c4.35,12.62,10.32,24.48,17.69,35.33L243.42,32.64c-10.28-8.19-21.65-15.06-33.87-20.35L8.14,198.85Z" fill="#fff"/>
  </g>
  <circle cx="150" cy="150" r="125.6" transform="translate(-62.13 150) rotate(-45)" fill="#c7932c"/>
  <circle cx="150" cy="150" r="120.06" transform="translate(-62.13 150) rotate(-45)" fill="#dda126"/>
  <g id="icons">
    <g id="ui-gambling-website-lined-icnos-casinoshunter">
      <g id="_1" data-name="1">
        <path id="crown" d="m158.03,86.67c2.28,1.16,4.09,3.09,5.06,5.45l20.53,49.63,42.16-51.37c3.75-4.57,10.56-5.29,15.21-1.59,2.54,2.02,4.02,5.07,4.02,8.28v91.41c0,8.82-7.26,15.97-16.22,15.97H77.37c-8.96,0-16.22-7.15-16.22-15.97v-91.41c0-5.88,4.84-10.65,10.82-10.65,3.27,0,6.36,1.45,8.41,3.96l42.17,51.37,20.52-49.63c2.14-5.19,7.97-7.81,13.3-6.13l.8.28.88.4Z" fill="#f8dc4b"/>
      </g>
    </g>
  </g>
  <g opacity=".16">
    <path d="m32.8,176.01c2.98,13.5,8.23,26.14,15.33,37.51L221.13,53.29c-10.83-7.98-23.04-14.18-36.21-18.17L32.8,176.01Z" fill="#fff"/>
    <path d="m231.57,61.93L55.96,224.59c3.12,3.93,6.47,7.66,10.05,11.16L241.93,72.8c-3.23-3.84-6.69-7.47-10.36-10.87Z" fill="#fff"/>
    <path d="m266.75,122c-3-12.55-7.95-24.34-14.55-35.01L79.37,247.07c10.17,7.41,21.54,13.26,33.77,17.2l153.6-142.27Z" fill="#fff"/>
  </g>
</svg>